<?xml version="1.0" encoding="utf-8"?>
<!-- Generator: Adobe Illustrator 24.3.0, SVG Export Plug-In . SVG Version: 6.00 Build 0)  -->
<svg version="1.1" id="Layer_1" xmlns="http://www.w3.org/2000/svg" xmlns:xlink="http://www.w3.org/1999/xlink" x="0px" y="0px"
	 viewBox="0 0 100 100" style="enable-background:new 0 0 100 100;" xml:space="preserve">
<style type="text/css">
	.st0{fill:#244751;}
	.st1{fill:#FFFFFF;stroke:#244751;stroke-miterlimit:10;}
	.st2{fill:#FFFFFF;}
</style>
<circle class="st0" cx="50" cy="50" r="49"/>
<g>
	<path class="st1" d="M38.19,80.85h-6.38V24h18.44c3.07,0,5.92,0.27,8.55,0.8c2.63,0.54,4.9,1.4,6.82,2.61
		c1.92,1.2,3.41,2.77,4.48,4.7c1.06,1.93,1.59,4.28,1.59,7.07c0,2.09-0.41,3.99-1.24,5.7c-0.83,1.71-1.95,3.2-3.37,4.46
		c-1.42,1.26-3.1,2.26-5.05,3.01c-1.95,0.75-4.08,1.23-6.38,1.44L74,80.85h-7.8L48.83,54.27H38.19V80.85z M38.19,49.3h11.08
		c5.14,0,9.1-0.84,11.88-2.53c2.78-1.69,4.17-4.21,4.17-7.59c0-1.87-0.39-3.45-1.15-4.74c-0.77-1.28-1.83-2.33-3.19-3.13
		c-1.36-0.8-3.02-1.39-4.97-1.77c-1.95-0.37-4.11-0.56-6.47-0.56H38.19V49.3z"/>
</g>
<path class="st0" d="M48,36.71c0,7.85-4.92,11.46-11,11.46s-11-3.61-11-11.46S30.92,17,37,17S48,28.86,48,36.71z"/>
<path class="st0" d="M37.2,82L37.2,82c-1.99,0-3.6-1.61-3.6-3.6L35,50c0-1.99,0.22-3,2.2-3h0c1.99,0,1.8,0.01,1.8,2l1.8,29.4
	C40.8,80.39,39.19,82,37.2,82z"/>
<path class="st2" d="M45,36.71c0,7.85-4.92,11.46-11,11.46s-11-3.61-11-11.46S27.92,17,34,17S45,28.86,45,36.71z"/>
<path class="st2" d="M34.2,82L34.2,82c-1.99,0-3.6-1.61-3.6-3.6L32,50c0-1.99,0.22-3,2.2-3h0c1.99,0,1.8,0.01,1.8,2l1.8,29.4
	C37.8,80.39,36.19,82,34.2,82z"/>
</svg>
